:SAMPLES-PER-SECOND 30
:FULLY-SPECIFIED
:DEGREES
207
root  61.0196 37.1389 -6.54844 -136.122 6.09085 178.381
RightUpLeg  -76.2443 -21.1745 26.6353
RightLeg  33.2773 0.570002 0.146862
RightFoot  -4.49246 0.566372 -9.93714
RightToes  0.000482159 0.542163 -0.142577
Spine  67.0637 -6.07042 8.10611
Spine1  11.4262 1.12386 -6.62873
HEad  -31.2306 -8.22164 3.88013
LeftShoulder1  5.66854 -24.7901 -12.8819
LeftArm  -93.2866 -74.1624 31.6444
LeftForeArm  5.26241 -16.6173 -1.69911
LeftHand  -0.25398 0.0180481 5.50724
RightShoulder  2.06297 14.7432 3.28416
RightArm  -71.1612 43.145 -25.3309
RightForeArm  -15.2674 2.33986 -1.83205
RightHand  1.4723 8.46075 11.7538
LeftUpLeg  -82.102 27.1393 -41.0916
LeftLeg  28.6269 -8.7486 -4.80448
LeftFoot  1.04513 -0.886304 8.09413
LeftToes  1.06247e-005 4.65855e-005 -8.18504e-006
208
root  61.1444 37.1515 -6.64195 -135.892 5.93762 178.32
RightUpLeg  -76.2448 -20.965 26.6176
RightLeg  33.3395 0.235849 -0.0893244
RightFoot  -4.7339 0.575207 -10.4765
RightToes  0.000482159 0.542163 -0.142577
Spine  66.9957 -5.96363 8.14788
Spine1  11.5726 1.24043 -6.58904
HEad  -30.9705 -7.92097 3.29217
LeftShoulder1  5.43768 -24.2985 -12.3706
LeftArm  -95.8348 -74.3243 35.0194
LeftForeArm  7.81705 -16.0578 -1.38205
LeftHand  -0.25398 0.0180481 5.50724
RightShoulder  2.02382 14.6908 3.07949
RightArm  -71.4588 43.6078 -25.3894
RightForeArm  -16.5257 2.60889 -1.67412
RightHand  1.03157 7.36854 8.88517
LeftUpLeg  -82.2478 27.2701 -41.3618
LeftLeg  28.447 -9.18412 -5.01972
LeftFoot  1.09926 -0.874229 7.94575
LeftToes  1.06247e-005 4.65855e-005 -8.18504e-006
209
root  61.2407 37.182 -6.73989 -135.764 5.94821 178.17
RightUpLeg  -76.0873 -20.8065 26.3911
RightLeg  33.2565 -0.00173557 -0.257574
RightFoot  -4.81783 0.584505 -10.7814
RightToes  0.000482159 0.542163 -0.142577
Spine  66.9316 -5.77239 8.16126
Spine1  11.6844 1.37523 -6.35724
HEad  -30.7685 -8.00745 2.70877
LeftShoulder1  5.54168 -24.0763 -12.9583
LeftArm  -96.7751 -74.4674 37.8616
LeftForeArm  10.0284 -15.7979 -1.50458
LeftHand  -0.25398 0.0180481 5.50724
RightShoulder  1.94411 14.9023 2.44205
RightArm  -71.8146 43.7758 -24.7017
RightForeArm  -18.3839 2.57322 -1.80954
RightHand  0.716461 7.08963 6.19307
LeftUpLeg  -82.2447 27.449 -41.7596
LeftLeg  28.1742 -9.50841 -5.14729
LeftFoot  1.24197 -0.884659 7.94167
LeftToes  1.06247e-005 4.65855e-005 -8.18504e-006
210
root  61.3157 37.2242 -6.82893 -135.755 5.93481 177.954
RightUpLeg  -75.8914 -20.8145 26.1215
RightLeg  33.165 -0.184161 -0.385808
RightFoot  -4.78618 0.584834 -10.7404
RightToes  0.000482159 0.542163 -0.142577
Spine  66.8168 -5.71258 8.34579
Spine1  11.8386 1.5888 -6.4216
HEad  -30.9288 -8.43883 2.77983
LeftShoulder1  5.54811 -24.0968 -12.9669
LeftArm  -96.9326 -74.6705 39.5924
LeftForeArm  11.3315 -15.3287 -1.57745
LeftHand  -0.25398 0.0180481 5.50724
RightShoulder  1.96651 15.0558 2.47927
RightArm  -72.1934 43.8126 -24.1846
RightForeArm  -20.3806 2.6967 -1.919
RightHand  0.373805 7.2397 2.97716
LeftUpLeg  -82.1472 27.6013 -42.0559
LeftLeg  28.0074 -9.75642 -5.25155
LeftFoot  1.6316 -0.898016 7.79915
LeftToes  1.06247e-005 4.65855e-005 -8.18504e-006
211
root  61.3666 37.2648 -6.91178 -135.77 5.86887 177.76
RightUpLeg  -75.7875 -21.0016 26.0414
RightLeg  33.1061 -0.212784 -0.405385
RightFoot  -4.80815 0.56158 -10.3694
RightToes  0.000482159 0.542163 -0.142577
Spine  66.6357 -5.72742 8.52838
Spine1  12.0645 1.74495 -6.57153
HEad  -31.4058 -8.40399 2.69412
LeftShoulder1  5.29476 -23.8663 -12.1407
LeftArm  -97.6479 -74.9342 41.0299
LeftForeArm  11.7681 -14.7141 -1.51447
LeftHand  -0.25398 0.0180481 5.50724
RightShoulder  2.04018 15.0431 2.93789
RightArm  -72.4998 44.059 -24.0549
RightForeArm  -22.6175 3.10598 -1.79592
RightHand  -0.0628047 7.31624 -1.03051
LeftUpLeg  -82.0879 27.6978 -42.253
LeftLeg  27.998 -9.92021 -5.34208
LeftFoot  2.10016 -0.904903 7.55862
LeftToes  1.06247e-005 4.65855e-005 -8.18504e-006
212
root  61.3938 37.2983 -6.99729 -135.74 5.87479 177.685
RightUpLeg  -75.7221 -21.226 26.2123
RightLeg  32.9747 -0.0519493 -0.291515
RightFoot  -4.88975 0.531286 -9.8976
RightToes  0.000482159 0.542163 -0.142577
Spine  66.4354 -5.62338 8.63568
Spine1  12.2232 1.94748 -6.57346
HEad  -31.6531 -8.19621 1.89997
LeftShoulder1  5.11868 -23.738 -11.533
LeftArm  -98.3202 -75.1938 42.0893
LeftForeArm  11.9671 -14.3612 -1.51985
LeftHand  -0.25398 0.0180481 5.50724
RightShoulder  2.10394 14.9359 3.40147
RightArm  -72.525 44.3081 -24.0439
RightForeArm  -24.7892 3.4922 -1.56192
RightHand  -0.420364 7.3101 -4.30153
LeftUpLeg  -82.1894 27.8485 -42.5589
LeftLeg  28.05 -10.027 -5.41411
LeftFoot  2.40693 -0.925996 7.5476
LeftToes  1.06247e-005 4.65855e-005 -8.18504e-006
